<!DOCTYPE svg PUBLIC "-//W3C//DTD SVG 20010904//EN" "http://www.w3.org/TR/2001/REC-SVG-20010904/DTD/svg10.dtd">
<svg version="1.0" xmlns="http://www.w3.org/2000/svg" width="604px" height="107px" viewBox="0 0 6040 1070" preserveAspectRatio="xMidYMid meet">
<g id="layer1" fill="#43bdc2" stroke="none">
 <path d="M1629 1062 c-23 -2 -45 -12 -60 -28 -22 -24 -24 -35 -28 -150 -4 -156 4 -209 34 -240 46 -45 157 -22 172 36 4 14 7 91 7 172 1 133 -1 149 -20 174 -23 31 -51 41 -105 36z m49 -211 c3 -159 -5 -188 -47 -162 -15 10 -27 198 -16 269 6 40 9 43 33 40 l27 -3 3 -144z"/>
 <path d="M1868 1061 c-71 -16 -81 -50 -76 -281 l3 -155 33 -3 32 -3 0 173 c0 184 7 214 46 206 18 -3 19 -15 24 -188 l5 -185 33 -3 33 -3 -3 200 c-3 185 -5 202 -23 220 -23 22 -68 32 -107 22z"/>
 <path d="M2429 1062 c-37 -4 -67 -40 -75 -90 l-7 -42 37 0 c29 0 36 4 36 19 0 34 12 51 36 51 17 0 25 -7 30 -24 7 -30 -14 -71 -61 -116 -49 -47 -65 -80 -65 -134 0 -59 7 -74 41 -91 69 -36 144 -4 156 68 l6 37 -37 0 c-31 0 -36 -3 -36 -24 0 -26 -20 -39 -45 -30 -9 4 -15 19 -15 40 0 28 11 46 60 99 64 69 75 95 67 156 -9 67 -47 90 -128 81z"/>
 <path d="M5173 1059 c-57 -16 -65 -47 -61 -231 l3 -160 28 -24 c20 -17 40 -24 72 -24 32 0 52 7 72 24 l28 24 3 160 c4 188 -4 214 -66 231 -20 6 -39 11 -42 10 -3 0 -20 -5 -37 -10z m71 -75 c3 -9 6 -75 6 -149 0 -145 -8 -168 -49 -145 -20 10 -21 20 -21 145 0 73 3 140 6 149 3 9 16 16 29 16 13 0 26 -7 29 -16z"/>
 <path d="M80 875 l0 -185 -35 0 c-29 0 -36 -4 -41 -26 -4 -14 -2 -30 3 -35 5 -5 54 -8 109 -7 l99 3 0 30 c0 27 -4 31 -35 35 -19 3 -36 11 -36 18 -1 6 -2 89 -3 182 l-1 170 -30 0 -30 0 0 -185z"/>
 <path d="M204 1043 c3 -10 10 -47 15 -83 5 -36 20 -127 32 -203 l22 -138 51 3 51 3 32 195 c41 252 41 240 -2 240 -30 0 -35 -3 -35 -24 0 -45 -10 -56 -50 -56 -37 0 -38 2 -45 40 -6 38 -9 40 -42 40 -28 0 -33 -3 -29 -17z m142 -170 c-11 -78 -17 -103 -26 -103 -7 0 -11 14 -25 108 l-7 42 32 0 32 0 -6 -47z"/>
 <path d="M479 1056 c-2 -2 -3 -101 -1 -220 l3 -216 29 0 30 0 2 188 3 187 58 3 c56 3 57 4 57 32 l0 30 -88 0 c-49 0 -91 -2 -93 -4z"/>
 <path d="M690 839 l0 -220 33 3 32 3 5 85 5 85 40 -87 c38 -85 40 -88 73 -88 40 0 39 5 -19 122 l-39 77 45 112 c25 62 45 116 45 121 0 4 -15 8 -34 8 -32 0 -36 -3 -54 -52 -44 -116 -43 -113 -52 -98 -6 8 -10 45 -10 83 l0 67 -35 0 -35 0 0 -221z"/>
 <path d="M1031 1028 c0 -18 15 -116 32 -218 l32 -185 51 -3 50 -3 32 203 c18 112 32 211 32 221 0 13 -8 17 -34 17 -33 0 -35 -2 -38 -37 -3 -37 -4 -38 -44 -41 -41 -3 -41 -3 -48 37 -6 37 -9 41 -36 41 -27 0 -30 -3 -29 -32z m139 -118 c0 -33 -24 -160 -30 -160 -4 0 -11 28 -14 63 -4 34 -10 72 -13 85 -4 19 -1 22 26 22 17 0 31 -4 31 -10z"/>
 <path d="M1299 890 c0 -93 -1 -191 -1 -217 l-1 -48 39 -3 c62 -5 123 7 144 31 26 27 28 121 4 156 -10 14 -13 26 -7 30 20 13 33 51 33 100 0 97 -28 121 -140 121 l-70 0 -1 -170z m129 98 c13 -13 16 -86 4 -104 -4 -6 -19 -14 -34 -18 l-28 -6 0 70 c0 66 1 70 23 70 13 0 28 -5 35 -12z m-3 -243 c0 -47 -2 -50 -27 -53 -28 -3 -28 -3 -28 53 0 56 0 56 28 53 25 -3 27 -6 27 -53z"/>
 <path d="M2100 875 l0 -185 -35 0 c-33 0 -35 -2 -35 -35 l0 -35 105 0 105 0 0 35 c0 33 -2 35 -35 35 l-35 0 0 185 0 185 -35 0 -35 0 0 -185z"/>
 <path d="M2650 875 l0 -185 -35 0 c-33 0 -35 -2 -35 -35 l0 -35 105 0 105 0 0 35 c0 33 -2 35 -35 35 l-35 0 0 185 0 185 -35 0 -35 0 0 -185z"/>
 <path d="M2841 1034 c-20 -25 -21 -40 -21 -221 l0 -194 33 3 32 3 5 185 5 185 24 3 c13 2 28 -2 32 -10 5 -7 9 -93 9 -190 l0 -178 30 0 30 0 0 194 c0 180 -1 195 -21 220 -18 23 -28 26 -79 26 -51 0 -61 -3 -79 -26z"/>
 <path d="M3070 840 l0 -220 90 0 90 0 0 35 0 35 -55 0 -55 0 0 65 0 65 45 0 c43 0 45 1 45 30 0 29 -2 30 -45 30 l-45 0 0 90 0 90 -35 0 -35 0 0 -220z"/>
 <path d="M3280 840 l0 -221 93 3 92 3 0 30 c0 29 -2 30 -50 33 -55 4 -63 10 -60 50 1 15 3 39 3 55 2 25 5 27 42 27 38 0 40 2 40 30 0 28 -2 30 -40 30 l-40 0 -1 43 c-1 23 -2 53 -3 67 -6 73 -4 70 -41 70 l-35 0 0 -220z"/>
 <path d="M3626 1038 c-5 -26 -46 -387 -46 -405 0 -8 13 -13 34 -13 l33 0 12 113 c13 120 21 171 26 165 2 -2 9 -55 15 -118 16 -162 15 -160 50 -160 35 0 35 0 50 160 6 63 13 116 15 118 2 3 6 -6 9 -19 6 -24 26 -218 26 -245 0 -9 11 -14 30 -14 37 0 36 -16 9 238 l-22 202 -48 0 -47 0 -7 -67 c-11 -119 -20 -121 -32 -8 l-8 70 -47 3 c-43 3 -48 1 -52 -20z"/>
 <path d="M3949 1056 c-3 -4 -3 -324 1 -424 0 -9 11 -12 33 -10 l32 3 3 218 2 217 -33 0 c-19 0 -36 -2 -38 -4z"/>
 <path d="M4120 875 l0 -185 -34 0 c-36 0 -48 -15 -39 -49 5 -20 12 -21 109 -21 l104 0 0 35 c0 33 -2 35 -35 35 l-35 0 0 185 0 185 -35 0 -35 0 0 -185z"/>
 <path d="M4290 839 l0 -220 33 3 32 3 3 93 3 92 34 0 34 0 3 -92 3 -93 33 0 c17 0 32 3 32 8 0 4 0 101 0 217 l0 210 -35 0 -34 0 -3 -92 -3 -93 -30 0 -30 0 -3 93 -3 92 -34 0 -35 0 0 -221z"/>
 <path d="M4650 840 l0 -220 53 0 c121 0 152 28 152 140 0 100 -30 140 -105 140 l-30 0 0 80 0 80 -35 0 -35 0 0 -220z m133 -62 c6 -63 -5 -88 -38 -88 -24 0 -25 2 -25 70 l0 70 29 0 c27 0 29 -3 34 -52z"/>
 <path d="M4885 842 l0 -217 93 -3 92 -3 0 36 0 35 -55 0 -55 0 0 60 0 60 45 0 c43 0 45 1 45 30 0 29 -2 30 -45 30 l-45 0 0 65 0 65 54 0 c49 0 54 2 58 25 3 13 3 27 0 30 -3 3 -46 5 -96 5 l-91 0 0 -218z"/>
 <path d="M5362 843 l3 -218 60 -3 c72 -3 126 20 136 58 12 42 10 137 -3 165 -14 30 -55 55 -93 55 -28 0 -28 0 -29 90 l-1 65 -38 3 -37 3 2 -218z m132 -29 c3 -9 6 -33 6 -54 0 -54 -8 -70 -36 -70 -13 0 -24 3 -25 8 -3 28 -5 118 -2 125 7 13 51 7 57 -9z"/>
 <path d="M5600 840 l0 -220 35 0 35 0 0 190 0 190 55 0 c54 0 55 0 55 30 l0 30 -90 0 -90 0 0 -220z"/>
 <path d="M5810 840 l0 -220 95 0 95 0 0 35 0 35 -60 0 -60 0 0 59 0 60 48 3 c43 3 47 5 47 28 0 23 -4 25 -47 28 l-48 3 0 65 0 64 60 0 60 0 0 30 0 30 -95 0 -95 0 0 -220z"/>
 <path d="M1143 548 c-48 -12 -83 -60 -83 -114 l0 -44 40 0 c39 0 40 1 40 35 0 24 6 37 20 45 31 17 60 -4 60 -43 0 -39 -23 -76 -77 -122 -74 -63 -101 -153 -68 -231 36 -88 183 -83 219 7 26 65 22 79 -22 79 -34 0 -39 -3 -47 -32 -18 -60 -75 -45 -75 19 0 29 10 46 65 102 67 70 95 120 95 171 0 38 -21 90 -44 109 -23 19 -85 29 -123 19z"/>
 <path d="M2554 549 c-48 -14 -76 -51 -82 -109 l-5 -50 42 0 c39 0 41 2 41 29 0 39 24 63 53 52 24 -9 32 -38 22 -79 -3 -14 -34 -53 -69 -88 -46 -46 -66 -75 -76 -108 -34 -123 46 -211 161 -177 46 14 69 44 76 101 l6 40 -40 0 c-35 0 -40 -3 -48 -32 -18 -60 -75 -45 -75 19 0 29 10 46 65 102 70 73 95 120 95 178 0 90 -79 148 -166 122z"/>
 <path d="M2844 549 c-16 -5 -41 -20 -55 -35 -24 -25 -24 -29 -27 -222 -2 -182 -1 -199 17 -229 42 -67 164 -69 208 -4 22 32 23 43 23 223 0 146 -3 195 -15 217 -21 42 -92 66 -151 50z m70 -85 c13 -13 16 -43 16 -175 0 -92 -4 -169 -10 -180 -15 -27 -58 -25 -69 4 -5 13 -10 90 -10 171 -2 119 1 153 14 172 18 28 37 30 59 8z"/>
 <path d="M3958 550 c-84 -15 -98 -55 -98 -275 0 -136 3 -166 19 -202 16 -34 27 -44 59 -54 50 -15 104 -5 139 25 23 20 27 33 31 90 l4 67 -38 -3 c-38 -3 -39 -4 -44 -47 -6 -50 -29 -73 -57 -55 -16 10 -18 32 -21 187 -2 168 -2 177 18 187 14 8 26 8 40 0 16 -9 20 -21 20 -65 l0 -55 40 0 40 0 0 60 c0 65 -18 113 -47 125 -42 17 -70 21 -105 15z"/>
 <path d="M0 285 l0 -265 85 0 c98 0 140 16 156 58 6 14 11 108 12 209 1 170 0 184 -19 210 -32 42 -61 53 -151 53 l-83 0 0 -265z m158 173 c13 -13 17 -324 4 -345 -8 -12 -24 -16 -59 -14 -23 1 -23 1 -23 186 l0 185 33 0 c18 0 38 -5 45 -12z"/>
 <path d="M286 523 c3 -16 22 -134 43 -263 l37 -235 64 0 64 0 41 260 41 260 -39 3 c-22 2 -41 1 -43 -1 -3 -2 -8 -24 -12 -48 l-8 -44 -49 0 c-46 0 -50 2 -53 25 -7 66 -10 70 -52 70 -38 0 -39 -1 -34 -27z m174 -156 c0 -27 -30 -210 -35 -215 -3 -3 -5 -1 -5 4 0 5 -7 52 -15 104 -19 126 -20 120 20 120 23 0 35 -5 35 -13z"/>
 <path d="M610 285 l0 -265 55 0 54 0 11 43 c6 23 23 85 38 137 l27 95 3 -138 3 -137 39 0 40 0 0 265 0 265 -44 0 -45 0 -14 -52 c-8 -29 -30 -107 -49 -173 l-33 -120 -3 173 -2 172 -40 0 -40 0 0 -265z"/>
 <path d="M1450 543 c0 -5 14 -91 30 -193 17 -102 35 -218 41 -257 l11 -73 63 0 63 0 11 68 c6 37 24 150 41 252 16 102 30 190 30 197 0 17 -79 17 -85 1 -2 -7 -6 -30 -10 -50 -6 -38 -6 -38 -54 -38 l-48 0 -7 50 -7 50 -39 0 c-22 0 -40 -3 -40 -7z m177 -195 c-4 -18 -12 -70 -18 -115 -7 -46 -15 -81 -17 -78 -6 6 -32 163 -32 198 0 24 3 27 36 27 35 0 36 -1 31 -32z"/>
 <path d="M1816 518 c-3 -18 -15 -121 -26 -228 -12 -107 -23 -212 -27 -233 l-6 -37 42 0 c34 0 41 4 45 23 5 21 35 290 37 325 2 48 17 -50 29 -191 l13 -157 44 0 c28 0 43 4 43 13 0 6 7 75 15 152 8 77 15 148 15 158 0 9 4 17 8 17 5 0 14 -60 21 -132 20 -216 18 -208 57 -208 42 0 42 -13 9 275 -14 121 -25 228 -25 238 0 14 -9 17 -59 17 l-58 0 -12 -117 c-6 -64 -13 -119 -15 -120 -4 -5 -26 166 -26 205 l0 32 -60 0 c-59 0 -59 0 -64 -32z"/>
 <path d="M2206 533 c-4 -15 -2 -445 2 -495 2 -16 14 -18 112 -18 l110 0 0 35 c0 37 -2 38 -62 35 -72 -3 -78 3 -78 81 l0 69 55 0 55 0 0 40 0 40 -55 0 -55 0 0 75 0 75 70 0 70 0 0 40 0 40 -109 0 c-96 0 -110 -2 -115 -17z"/>
 <path d="M3068 533 c-2 -10 -4 -128 -4 -263 l1 -245 57 -3 c67 -3 59 -19 89 176 12 78 26 142 31 142 4 0 8 -2 8 -4 0 -9 41 -274 45 -294 5 -19 12 -22 60 -22 53 0 55 1 56 28 1 34 1 484 0 495 -1 4 -17 7 -36 7 -40 0 -37 16 -35 -177 1 -62 -3 -113 -8 -113 -5 0 -14 37 -21 83 -7 45 -17 110 -23 145 l-10 62 -39 0 c-21 0 -39 -1 -39 -2 0 -18 -51 -283 -55 -286 -3 -3 -5 61 -5 141 l0 147 -34 0 c-24 0 -35 -5 -38 -17z"/>
 <path d="M3470 285 l0 -265 116 0 115 0 -3 37 -3 38 -65 0 -65 1 -3 72 -3 72 56 0 55 0 0 40 0 40 -55 0 -55 0 0 75 0 75 70 0 70 0 0 40 0 40 -115 0 -115 0 0 -265z"/>
 <path d="M4160 285 l0 -265 45 0 45 0 0 110 c0 119 -4 112 60 113 l25 1 3 -112 3 -112 42 0 42 0 -2 262 -3 263 -40 3 -40 3 0 -115 0 -116 -45 0 -45 0 0 115 0 115 -45 0 -45 0 0 -265z"/>
 <path d="M4467 513 c4 -21 23 -139 42 -263 l36 -225 62 -3 c60 -3 61 -2 67 25 11 51 76 470 76 486 0 13 -9 17 -40 17 -37 0 -39 -2 -45 -37 -11 -64 -11 -64 -62 -61 l-48 3 -9 48 c-8 46 -9 47 -46 47 l-39 0 6 -37z m173 -148 c0 -21 -31 -209 -35 -213 -3 -3 -20 93 -31 176 l-7 52 37 0 c25 0 36 -4 36 -15z"/>
 <path d="M4828 513 c0 -21 0 -120 1 -221 2 -199 4 -193 -58 -197 -22 -1 -26 -6 -29 -38 l-3 -37 131 0 131 0 -3 37 c-3 35 -5 38 -38 39 -19 1 -38 2 -42 3 -5 1 -8 102 -8 226 l0 225 -40 0 c-39 0 -40 -1 -42 -37z"/>
 <path d="M5130 540 c0 -6 18 -124 40 -262 22 -139 40 -253 40 -255 0 -2 28 -3 63 -3 l63 0 38 243 c21 133 40 252 43 265 5 20 2 22 -40 22 l-44 0 -7 -50 -7 -50 -49 0 c-49 0 -49 0 -55 38 -4 20 -8 43 -10 50 -5 15 -75 16 -75 2z m170 -187 c0 -44 -23 -193 -30 -193 -4 0 -12 39 -19 88 -7 48 -15 97 -18 110 -5 20 -1 22 31 22 32 0 36 -3 36 -27z"/>
 <path d="M5460 545 c0 -3 -1 -72 -1 -155 0 -82 1 -199 1 -260 l0 -110 80 0 c138 0 163 25 161 162 -1 57 -7 100 -16 118 -16 30 -59 50 -111 50 l-34 0 0 100 0 100 -40 0 c-22 0 -40 -2 -40 -5z m148 -287 c13 -13 16 -126 4 -145 -7 -12 -25 -16 -54 -14 -16 1 -18 12 -18 86 l0 85 28 0 c15 0 33 -5 40 -12z"/>
 <path d="M5740 285 l0 -265 90 0 c85 0 91 2 122 29 30 27 33 34 36 106 3 43 -1 95 -7 117 -15 47 -59 78 -113 78 l-38 0 0 100 0 100 -45 0 -45 0 0 -265z m161 -75 c8 -80 -1 -104 -39 -108 l-32 -3 0 86 0 86 33 -3 c31 -3 32 -5 38 -58z"/>
 <path d="M958 173 c-14 -4 -18 -16 -19 -61 0 -31 -2 -65 -4 -74 -3 -15 4 -18 36 -18 l39 0 0 64 c0 45 -5 69 -16 80 -8 9 -16 15 -17 15 -1 -1 -10 -3 -19 -6z"/>
 </g>

</svg>